<?xml version="1.0" encoding="utf-8"?>
<!-- Generator: Adobe Illustrator 26.4.1, SVG Export Plug-In . SVG Version: 6.00 Build 0)  -->
<svg version="1.1" id="_Слой_2" xmlns="http://www.w3.org/2000/svg" xmlns:xlink="http://www.w3.org/1999/xlink" x="0px"
	 y="0px" viewBox="0 0 1594.6 1498.5" style="enable-background:new 0 0 1594.6 1498.5;" xml:space="preserve">
<style type="text/css">
	.st0{fill:#FFFFFF;stroke:#1D1D1B;stroke-width:15;stroke-miterlimit:10;}
	.st1{fill:none;}
</style>
<g id="_Слой_1-2">
	<g>
		<g>
			<g>
				<path class="st0" d="M383.4,786.6h342.4c15.8,0,28.5,12.8,28.5,28.5v342.4c0,15.8-12.8,28.5-28.5,28.5H383.4
					c-15.8,0-28.5-12.8-28.5-28.5V815.1C354.9,799.4,367.6,786.6,383.4,786.6z"/>
				<path class="st0" d="M346.9,754.5h415.5c10.9,0,19.8,8.8,19.8,19.8v37.9c0,10.9-8.8,19.8-19.8,19.8H346.9
					c-10.9,0-19.8-8.8-19.8-19.8v-37.9C327.1,763.4,336,754.5,346.9,754.5z"/>
			</g>
			<g>
				<path class="st0" d="M868.7,786.6h342.4c15.8,0,28.5,12.8,28.5,28.5v342.4c0,15.8-12.8,28.5-28.5,28.5H868.7
					c-15.8,0-28.5-12.8-28.5-28.5V815.1C840.2,799.4,853,786.6,868.7,786.6z"/>
				<path class="st0" d="M832.2,754.5h415.5c10.9,0,19.8,8.8,19.8,19.8v37.9c0,10.9-8.8,19.8-19.8,19.8H832.2
					c-10.9,0-19.8-8.8-19.8-19.8v-37.9C812.4,763.4,821.3,754.5,832.2,754.5z"/>
			</g>
		</g>
		<g>
			<path class="st0" d="M626.1,344.5h342.5c15.8,0,28.5,12.8,28.5,28.5v342.5c0,15.8-12.8,28.5-28.5,28.5H626.1
				c-15.8,0-28.5-12.8-28.5-28.5V373C597.5,357.2,610.3,344.5,626.1,344.5z"/>
			<path class="st0" d="M589.5,312.4H1005c10.9,0,19.8,8.8,19.8,19.8V370c0,10.9-8.8,19.8-19.8,19.8H589.5
				c-10.9,0-19.8-8.8-19.8-19.8v-37.9C569.8,321.2,578.6,312.4,589.5,312.4z"/>
		</g>
		<path class="st0" d="M736.9,389.8c0.4,36.9,0.8,73.8,1.3,110.6c18.9-11.3,37.7-22.5,56.5-33.8c17.2,12.1,34.4,24.3,51.5,36.4
			c-0.4-37.8-0.8-75.5-1.3-113.3L736.9,389.8L736.9,389.8z"/>
	</g>
</g>
<rect class="st1" width="1594.6" height="1498.5"/>
</svg>
