<?xml version="1.0" encoding="utf-8"?>
<!-- Generator: Adobe Illustrator 26.4.1, SVG Export Plug-In . SVG Version: 6.00 Build 0)  -->
<svg version="1.1" id="_Слой_2" xmlns="http://www.w3.org/2000/svg" xmlns:xlink="http://www.w3.org/1999/xlink" x="0px"
	 y="0px" viewBox="0 0 1180.9 1326.2" style="enable-background:new 0 0 1180.9 1326.2;" xml:space="preserve">
<style type="text/css">
	.st0{display:none;}
	.st1{fill:none;stroke:#000000;stroke-width:3;stroke-miterlimit:10;}
</style>
<g id="_Слой_1-2">
	<path class="st0" d="M573.6,1240c-28.3,0-51.8-0.4-73.9-1.3c-45.2-1.9-84.2-16.3-112.9-41.8c-29.3-26-48-63.7-54-109
		c-6-45.2-4.8-91.7-3.6-136.7c0.4-16.7,0.9-34,1-50.8c0-10.3,4.1-22.1,10.7-31.5c5-7,6.5-14.2,5.5-25.8c-8.8-101-10-209.6-3.7-341.4
		c-4,1-7.9,1.8-12,2.5c-2.3,0.4-4.5,0.6-6.6,0.6c-13.5,0-23.1-7.9-25.8-21.3c-3-14.5,4.6-26.5,19.6-31.3c3.4-1.1,6.8-2.1,10.2-3
		c-5.6-49.7-5.9-103-0.9-162.6c9.1-109.3,73.6-176.4,186.6-194.2c26.7-4.2,53.1-6.3,78.4-6.3c31.9,0,63.2,3.4,93.1,10
		c52.7,11.8,93.9,34.8,122.3,68.4c28.5,33.7,44.3,78.2,47,132.1c2.6,51.7,4.3,102.4-2,152.5c12.3,4.9,18.9,8.5,23.3,12.5
		c10.5,9.5,7.1,20.8,5.9,24.5c-3.7,11.9-11,17-24.4,17c-5.1,0-11.5-0.7-19.5-1.9c0,1.2,0,2.5,0.1,3.7c5.9,119.1,4.7,235.4-3.6,345.6
		c-0.2,2.8,1.3,7,2.8,11.1c0.6,1.8,1.3,3.6,1.9,5.5c1.2,3.9,2.9,7.9,4.7,12.2c4,9.4,8.1,19.2,8.1,29.8c0.1,10.8,0.2,21.9,0.3,32.6
		c0.5,47.7,1.1,97-4.2,145.2c-4.5,40.9-22.2,78.2-50,105.3c-31.2,30.3-73.5,46.6-122.2,46.9c-13.2,0.1-26.6,0.2-39.6,0.4
		C615.8,1239.7,594.5,1240,573.6,1240z M382.2,1042.3c0.1,9.1,0.6,18.3,1.6,27.2c3.9,34.8,24,115.6,125.2,115.6c1.1,0,2.2,0,3.4,0
		c14.9-0.3,30.8-0.4,50.1-0.4c12.8,0,25.8,0.1,38.4,0.1c12.6,0.1,25.5,0.1,38.3,0.1c13.1,0,24.6-0.1,35.2-0.2
		c63.4-0.7,105.1-33.6,117.6-92.7c3.4-16,5.3-32.6,6.6-49.2c-24.1,52.7-68.4,85.2-132.3,96.9c-25.7,4.7-51.4,7.1-76.3,7.1
		c-28.5,0-56.8-3.1-84.3-9.2C445.8,1124.3,404.5,1092.3,382.2,1042.3z M446,952.2c-0.4,4.9-0.9,9.7-1.3,14.5
		c-2.1,22.9-4.1,44.6-5.4,66.6c-0.3,4.7,1.9,11.4,5.1,15.6c13,17.2,32,29.3,56.5,36c29,8,58.9,12,88.8,12l0,0
		c27.6,0,55.8-3.4,84-10.2c28.1-6.8,50.1-20.6,65.4-41.1c0.7-0.9,2.6-3.5,3.1-4.8c-1.9-25.4-4.1-50.4-6.5-76.9
		c-0.3-3.9-0.7-7.8-1-11.7c-47.8,8.4-96.1,12.6-143.9,12.6C543,964.7,494.4,960.5,446,952.2z M449.2,901.8c0.5,0.2,1.5,0.6,3.4,0.9
		c46,8.1,92.4,12.2,137.8,12.2c29.3,0,58.9-1.7,88-5.1c14-1.6,27.7-3.8,42.2-6.2c3.7-0.6,7.4-1.2,11.2-1.8
		c-6-120.9-3.7-228.2,7-327.5c-49.5-14.3-99.5-21.5-148.5-21.5c-48.9,0-98.7,7.2-148.2,21.4c0.4,4.2,0.8,8.4,1.2,12.6
		c1.4,14.7,2.7,28.6,3.8,42.7c6.5,80.2,7.2,165.4,2,268.1C449,900,449.1,901.3,449.2,901.8z M390.7,575.6c-3,89.3-2.4,190,8.8,293.2
		C404.6,760.5,401.7,664.5,390.7,575.6z M790.1,573.6c-11.2,88.7-14.1,184-8.7,294.2C792.7,763.8,793.2,662.8,790.1,573.6z
		 M593.9,321.3c-22.3,0-46,2.4-70.5,7.2c-44.8,8.7-77.6,27.6-100.3,57.8c-9.6,12.8-13.7,22-8.1,33.9c2.3,4.9,3.1,10,3.8,14.4
		c0.2,1.4,0.4,2.8,0.7,4c4.6,23.8,9.3,47.7,14,72.1l2.5,13.1c51.6-14.1,103.6-21.2,154.8-21.2c51.1,0,102.7,7.1,153.6,21.1
		c1.3-6,2.5-12,3.8-17.9c7.3-34.4,14.1-66.9,20.8-100c-0.1-0.5-0.4-1.9-2.1-5.1c-14.4-26.4-36.1-46-64.7-58.2
		C668.2,328.4,632.8,321.3,593.9,321.3z M589.2,271.3c28.1,0,57,3.4,85.7,10c32.8,7.5,61.1,19.9,84.1,36.6
		c16.2,11.8,30.1,26,41.7,42.5c0.5-22.9,1-46.5-1-69.3c-7.2-81.5-46.7-125.4-128.1-142.6c-26.4-5.6-53.6-8.4-80.8-8.4
		c-25.5,0-51.6,2.5-77.6,7.4c-81.2,15.3-123,59.1-131.5,137.8c-2.6,24.3-2,48.6-1.3,74.4c24.8-35.3,61.3-60.2,108.8-74.1
		C521.8,276.2,555.4,271.3,589.2,271.3z"/>
	<path class="st0" d="M841.7,455.7c29.1,11,34.3,15.7,30.6,27.6c-3.5,11.4-9.2,12.3-44.2,6.3c0,5.5-0.2,10.7,0,15.9
		c5.7,114.9,5.1,229.6-3.6,344.4c-0.5,6.6,3,13.6,5.2,20.3c4.2,13.1,12.3,26,12.4,39c0.3,58.9,2.6,118.3-3.8,176.6
		c-8.1,74.2-63.2,142.6-162.4,143.3c-58.6,0.4-117.3,1.9-175.8-0.5c-86.3-3.6-145.7-53.8-157.4-142.1c-8.1-61.1-2.8-124-2.6-186.2
		c0-8.7,3.8-18.6,8.9-25.7c7.3-10.3,8.3-20.6,7.3-32.4c-9.9-114.7-9-229.5-3.5-344.3c0.1-2.7-0.2-5.4-0.4-8.9
		c-8.3,1.9-15.8,4-23.4,5.4c-10.4,1.8-18.7-1.7-21-12.8c-2.1-10.2,3.3-16.7,12.9-19.8c6.1-2,12.3-3.5,18-5.2
		c-7.1-56.9-6.5-113.1-1.9-169.1c9-108.2,73.1-168.6,178.2-185.1c56-8.8,112.2-8.8,167.8,3.6c101.5,22.6,156.3,87.3,161.5,191.3
		C847.3,350.1,849.3,403.1,841.7,455.7z M431.4,567c2,22.1,4.1,42.7,5.7,63.3c7.2,88.9,6.4,177.8,2,266.8
		c-0.5,9.4,1.3,13.7,11.8,15.5c75.9,13.3,152.1,16,228.7,7.2c20.8-2.4,41.4-6.2,62.7-9.4c-6.2-116-5.5-229.7,7.4-343.2
		C643,534.8,537.9,534.8,431.4,567L431.4,567z M751.9,536.5c9.3-44.2,18.3-86.5,26.8-128.8c0.7-3.5-1.3-8-3.2-11.4
		c-15.8-29-39.4-49.8-69.5-62.6c-59.8-25.4-121.8-27.1-184.6-14.9c-42.3,8.2-79.6,26-106.4,61.6c-10,13.3-17.3,26.9-9.2,44.2
		c2.3,4.9,2.7,10.7,3.7,16.1c6.2,31.5,12.2,63,18.6,96C536.1,505.1,643.9,504.7,751.9,536.5L751.9,536.5z M371.2,396.8
		c23.6-54,66.2-85.5,120.9-101.5c59.6-17.5,120.2-18.1,180.6-4.2c60.5,13.9,108.7,44.9,136,103c0.1,0.2,1.4-0.1,1.5-0.1
		c0-34.7,2.5-69.4-0.5-103.7c-7.6-85.9-51.3-133.6-136-151.5c-53.9-11.4-108.4-11.2-162.3-1.1c-85.2,16-130.5,62.5-139.6,146.6
		C367.9,321.1,371.2,358.6,371.2,396.8z M743.7,940.3c-102.5,19.3-204.1,19-306.6,0.1c-2.8,31.8-6,62-7.7,92.3
		c-0.4,7.3,2.7,16.2,7.1,22.2c15.6,20.5,37.3,32.9,61.8,39.6c59,16.2,118.6,16.1,177.8,1.9c28.3-6.8,53.2-20.8,71.1-44.9
		c2.4-3.2,5.3-7.3,5.1-10.8C749.8,1007.6,746.7,974.6,743.7,940.3L743.7,940.3z M813.2,976.3c-1.9-0.1-3.8-0.1-5.8-0.2
		c-0.8,4-1.8,7.9-2.5,11.9c-14.5,79.6-61.3,127.3-140.5,141.8c-52.2,9.6-104.6,9.5-156.7-2.1c-65.5-14.5-109.2-52.6-126.5-118.7
		c-2.7-10.5-5.7-20.9-7.9-29c0,29-2.9,60.2,0.6,90.6c7.7,68.2,49.7,126.1,138.7,124.5c53.9-1,107.9,0.2,161.9-0.3
		c66.9-0.8,113.5-35.6,127.3-100.7C809.9,1055.8,809.7,1015.6,813.2,976.3L813.2,976.3z M385.3,479.4
		C375.6,642.2,374.7,804.6,403,966C416.7,803.1,417.8,640.7,385.3,479.4L385.3,479.4z M795.6,479.1
		c-32.7,160.9-31.2,323.1-17.8,485.7C806.1,803.7,805.4,641.6,795.6,479.1z"/>
	<path d="M573.6,1224.3c-28.1,0-51.4-0.4-73.2-1.3c-85.5-3.6-141-53.6-152.1-137.2c-5.8-44-4.6-89.8-3.5-134.2
		c0.4-16.8,0.9-34.1,1-51.2c0-7,3.1-15.8,7.8-22.5c9-12.7,9.3-25.4,8.3-36.2c-8.8-101.3-9.9-210.5-3.4-343.5c0.1-2.1,0-4.1-0.2-6.3
		c-0.1-1-0.2-2.1-0.2-3.2c-0.1-1.7-0.9-3.2-2.2-4.2c-1-0.7-2.2-1.1-3.4-1.1c-0.4,0-0.9,0-1.3,0.1c-2.7,0.6-5.3,1.3-7.8,1.9
		c-5.3,1.3-10.3,2.5-15.3,3.4c-1.4,0.2-2.7,0.4-4,0.4c-6,0-9.2-2.7-10.5-8.7c-0.9-4.2-0.8-10.1,9.1-13.3c4.1-1.3,8.3-2.5,12.4-3.6
		c1.8-0.5,3.7-1,5.5-1.5c2.7-0.8,4.4-3.4,4.1-6.2c-6.4-51-7-106-1.8-167.9c4.3-51.7,21.6-93.2,51.5-123.4c29-29.4,70-48.4,122-56.6
		c25.9-4.1,51.5-6.1,76-6.1c30.7,0,60.9,3.3,89.7,9.7c99.2,22.1,152,84.7,157.1,186.1c2.7,53.7,4.5,106.1-2.9,157.4
		c-0.4,2.6,1.1,5.2,3.6,6.1c30.1,11.4,29.2,14.3,27.2,20.6c-1.3,4.2-1.8,5.9-9.4,5.9c-6.3,0-15.9-1.4-28.5-3.6
		c-0.3-0.1-0.6-0.1-1-0.1c-1.3,0-2.6,0.5-3.7,1.3c-1.3,1.1-2,2.7-2,4.3c0,1.7,0,3.5,0,5.1c0,3.6-0.1,7.3,0.1,11
		c5.9,118.5,4.7,234.1-3.6,343.7c-0.5,6.2,1.8,12.3,3.7,17.6c0.6,1.7,1.2,3.3,1.7,4.8c1.5,4.6,3.4,9.1,5.2,13.5
		c3.5,8.4,6.9,16.3,6.9,23.9c0.1,10.9,0.2,22,0.3,32.7c0.5,47.2,1.1,96.1-4.1,143.3c-4.1,37.2-20.2,71.2-45.4,95.8
		c-28.2,27.5-66.8,42.1-111.4,42.4c-13.2,0.1-26.7,0.2-39.7,0.4C615.7,1224.1,594.4,1224.3,573.6,1224.3z M373.3,974.3
		c-0.3,0-0.5,0-0.8,0.1c-2.8,0.4-4.9,2.8-4.9,5.6c0,8.9-0.3,17.8-0.5,27.2c-0.6,21-1.3,42.6,1.2,64.1
		c9.2,81.1,61.8,129.6,140.8,129.6c1.2,0,2.4,0,3.7,0c14.8-0.3,30.6-0.4,49.8-0.4c12.8,0,25.8,0.1,38.3,0.1
		c12.6,0.1,25.6,0.1,38.4,0.1c13.1,0,24.7-0.1,35.3-0.2c70.4-0.8,118.8-39.1,132.8-105.1c5.7-26.9,7.4-54.8,9-81.9
		c0.7-12,1.5-24.3,2.5-36.4c0-0.2,0-0.4,0-0.7c0-3.1-2.4-5.7-5.5-5.8c-1.9-0.1-3.9-0.1-5.8-0.2h-0.1c-2.7,0-5,1.9-5.5,4.5
		c-0.3,1.3-0.5,2.5-0.8,3.8c-0.6,2.7-1.2,5.5-1.7,8.3c-7,38.6-22,69.6-44.4,92.4c-22.5,22.8-53.3,37.9-91.5,44.9
		c-24.8,4.5-49.5,6.8-73.5,6.8c-27.3,0-54.6-3-80.9-8.8c-32.2-7.2-58.7-20.2-78.8-38.7c-20.7-19.1-35.3-44.7-43.5-76
		c-1.9-7.4-4-14.7-5.8-21.2c-0.8-2.8-1.5-5.4-2.2-7.8C378.1,976,375.8,974.3,373.3,974.3z M437.1,934.7c-1.2,0-2.4,0.4-3.4,1.2
		c-1.3,1-2.1,2.4-2.2,4c-0.8,8.5-1.5,17-2.3,25.3c-2.1,23.1-4.2,44.9-5.4,67.2c-0.5,8.5,2.8,18.7,8.3,25.9
		c15.1,20,36.9,34,64.8,41.7c30.3,8.3,61.6,12.6,92.9,12.6l0,0c28.8,0,58.3-3.6,87.7-10.6c31.8-7.6,56.8-23.5,74.3-47
		c3.3-4.5,6.6-9.3,6.2-14.6c-1.9-25.7-4.2-51-6.6-77.7c-0.7-7.5-1.3-15-2-22.6c-0.1-1.3-0.7-2.5-1.6-3.5c-1.1-1.1-2.5-1.7-4.1-1.7
		c-0.3,0-0.7,0-1,0.1c-50.3,9.5-101.4,14.3-151.9,14.3c-50.3,0-101.7-4.8-152.7-14.2C437.7,934.8,437.4,934.7,437.1,934.7z
		 M385.3,473.7c-0.1,0-0.3,0-0.4,0c-2.8,0.2-5.1,2.5-5.3,5.3c-8,134.5-13.1,311.6,17.9,487.9c0.5,2.7,2.8,4.7,5.6,4.7
		c0.1,0,0.2,0,0.3,0c2.8-0.1,5.2-2.4,5.4-5.2c16.1-192.4,10.5-347.6-17.9-488.2C390.3,475.6,387.9,473.7,385.3,473.7z M795.6,473.4
		c-2.7,0-5,1.9-5.6,4.5c-28.6,140.5-34.1,290.8-17.9,487.3c0.2,2.8,2.5,5.1,5.4,5.2c0.1,0,0.2,0,0.3,0c2.7,0,5.1-2,5.6-4.7
		c31.2-177.4,25.9-353.5,17.8-487c-0.2-2.8-2.4-5.1-5.3-5.3C795.8,473.4,795.7,473.4,795.6,473.4z M429.8,561.5
		c-1,0.3-1.9,0.8-2.6,1.6c-1.1,1.2-1.6,2.8-1.5,4.3c0.6,7.1,1.3,14,1.9,20.8c1.4,14.7,2.7,28.5,3.8,42.5c6.5,79.5,7.1,164.1,2,266
		c-0.5,11,2,18.8,16.4,21.4c46.9,8.2,94.2,12.4,140.5,12.4c29.9,0,60.1-1.7,89.8-5.2c14.3-1.7,28.8-4,42.9-6.3
		c6.5-1.1,13.3-2.2,20-3.2c2.9-0.4,5-3,4.8-5.9c-6.7-127.1-4.3-239.1,7.4-342.3c0.3-2.7-1.4-5.3-4-6.1
		c-53.6-16.3-107.8-24.5-161-24.5C537.3,537.2,483.3,545.4,429.8,561.5z M593.9,305.7c-23.3,0-48,2.5-73.5,7.5
		c-48.8,9.5-84.7,30.4-109.8,63.8c-10.6,14.1-19.1,30-9.8,50c1.3,2.9,1.9,6.4,2.5,10.2c0.2,1.5,0.5,3,0.8,4.6
		c4.7,23.8,9.3,47.7,14,72.1l4.6,23.9c0.3,1.6,1.3,2.9,2.6,3.8c0.9,0.5,1.9,0.8,3,0.8c0.5,0,1.1-0.1,1.6-0.2
		c53.6-15.6,107.7-23.6,160.9-23.6c53,0,106.7,7.9,159.6,23.4c0.5,0.2,1.1,0.2,1.6,0.2c1,0,2-0.3,2.9-0.8c1.4-0.8,2.3-2.2,2.6-3.7
		c2-9.5,4-19,6-28.4c7.3-34.6,14.2-67.2,20.9-100.5c1.1-5.4-1.6-11.3-3.8-15.3c-16.1-29.7-40.4-51.6-72.3-65.1
		C672.8,313.3,634.3,305.7,593.9,305.7z M590.9,124.5c-26.5,0-53.5,2.6-80.5,7.6c-87.8,16.6-134.9,66.1-144.2,151.6
		c-2.8,25.6-2,52-1.4,77.5c0.3,11.7,0.6,23.7,0.6,35.6c0,2.7,1.9,5,4.5,5.5c0.4,0.1,0.8,0.1,1.2,0.1c2.2,0,4.3-1.3,5.2-3.4
		c21.6-49.4,60-81.6,117.3-98.3c31.1-9.1,63.2-13.7,95.5-13.7c26.9,0,54.6,3.2,82.2,9.6c64.3,14.8,107.5,47.5,132.1,99.9
		c1,2.1,3.1,3.3,5.4,3.3c0.8,0,1.7-0.2,2.4-0.3c2.6-0.5,4.6-2.8,4.6-5.6c0-10.8,0.3-21.8,0.5-32.4c0.5-23.6,1.1-47.9-1-71.8
		c-7.8-88.2-52.4-138-140.4-156.5C647.5,127.5,619.2,124.5,590.9,124.5z"/>
</g>
<rect x="121.1" y="31.1" class="st1" width="938.7" height="1264"/>
</svg>
