<?xml version="1.0" encoding="utf-8"?>
<!-- Generator: Adobe Illustrator 26.4.1, SVG Export Plug-In . SVG Version: 6.00 Build 0)  -->
<svg version="1.1" id="_Слой_2" xmlns="http://www.w3.org/2000/svg" xmlns:xlink="http://www.w3.org/1999/xlink" x="0px"
	 y="0px" viewBox="0 0 504.8 458.9" style="enable-background:new 0 0 504.8 458.9;" xml:space="preserve">
<style type="text/css">
	.st0{fill:#FFFFFF;stroke:#FFFFFF;stroke-width:12;stroke-miterlimit:10;}
	.st1{fill:#FFFFFF;}
</style>
<g>
	<path class="st0" d="M430.7,455.8h-27.5c-4.6,0-8.4-3.8-8.4-8.4V133.8c0-4.4-3.7-8.1-8.1-8.1H118.1c-4.4,0-8.1,3.7-8.1,8.1v313.5
		c0,4.6-3.8,8.4-8.4,8.4H74.1c-7.7,0-13.9-6.2-13.9-13.9V94.1l1.7-0.8c31.4-14.9,62.7-29.8,94.1-44.6l96.4-45.8l94.4,44.8
		c32.1,15.2,64.1,30.4,96.2,45.6l1.7,0.8v347.7C444.7,449.5,438.4,455.8,430.7,455.8z M118.1,119.9h268.7c7.7,0,13.9,6.2,13.9,13.9
		v313.5c0,1.5,1.2,2.6,2.6,2.6h27.5c4.4,0,8.1-3.7,8.1-8.1V97.8c-31.5-14.9-63-29.9-94.5-44.8L252.4,9.2l-94,44.6
		c-30.8,14.7-61.6,29.3-92.5,44v344c0,4.4,3.7,8.1,8.1,8.1h27.5c1.5,0,2.6-1.2,2.6-2.6V133.8C104,126.1,110.4,119.9,118.1,119.9z"/>
	<path class="st0" d="M6.7,125.7c-1.1,0-2.2-0.6-2.7-1.7c-0.7-1.5-0.1-3.2,1.4-3.9c18.8-8.9,37.5-17.9,56.4-26.8
		c1.5-0.7,3.2-0.1,3.9,1.4s0.1,3.2-1.4,3.9c-18.8,8.9-37.5,17.9-56.4,26.8C7.5,125.6,7,125.7,6.7,125.7z"/>
	<path class="st0" d="M498.1,125.7c-0.4,0-0.9-0.1-1.3-0.3c-18.8-8.9-37.5-17.9-56.4-26.8c-1.5-0.7-2.1-2.5-1.4-3.9
		c0.7-1.5,2.5-2.1,3.9-1.4c18.8,8.9,37.5,17.9,56.4,26.8c1.5,0.7,2.1,2.5,1.4,3.9C500.3,125.1,499.2,125.7,498.1,125.7z"/>
</g>
<g>
	<path class="st1" d="M217.5,320.2v34.1H273v11.2h-55.5v36.1h-13.7v-36.1h-22.6v-11.2h22.6v-34.1h-22.6v-12.9h22.6V201.2h54.4
		c41.2,0,65.6,23.5,65.6,58.7c0,36.9-24.3,60.4-65.6,60.4L217.5,320.2L217.5,320.2z M217.5,307.4h40.4c33.8,0,51.8-18.6,51.8-47.5
		c0-26.9-18-45.8-51.8-45.8h-40.4V307.4z"/>
</g>
</svg>
