<?xml version="1.0" encoding="utf-8"?>
<!-- Generator: Adobe Illustrator 26.4.1, SVG Export Plug-In . SVG Version: 6.00 Build 0)  -->
<svg version="1.1" id="_Слой_2" xmlns="http://www.w3.org/2000/svg" xmlns:xlink="http://www.w3.org/1999/xlink" x="0px"
	 y="0px" viewBox="0 0 920 920" style="enable-background:new 0 0 920 920;" xml:space="preserve">
<path d="M574.6,258.9c-76.5,0-153,0-229.5-0.1c-3.7,0-5.4,1-6.9,4.5c-16,38.3-56.4,59.6-97.3,51c-29.4-6.2-49.8-23.9-61.8-51.3
	c-1.4-3.1-2.7-4.2-6.1-4.2c-18.8,0.2-37.7,0.1-56.5,0.1c-17.2,0-30.5-12.7-30.5-29c0-16.4,13.3-28.8,30.6-28.8
	c18.8,0,37.7-0.1,56.5,0.1c3.1,0,4.6-0.9,5.8-3.8c13.2-30.6,36.6-48.9,69.4-52.9c33.1-4,60.3,8.6,80.4,35.3c4,5.2,7,11.3,9.6,17.4
	c1.4,3.3,3.1,4,6.2,3.9c30.5-0.1,61-0.1,91.5-0.1c122.3,0,244.6,0,366.9,0c15.2,0,26.9,8.9,29.9,22.8c4,18.4-9.7,35-29,35.1
	c-51.3,0-102.7,0-154,0C625,258.9,599.8,258.9,574.6,258.9L574.6,258.9z M230,229.9c0,15.7,13.2,29.1,28.8,29
	c15.4,0,29.2-13.8,29-29.1c-0.2-15.4-13.4-28.6-28.7-28.8C243.5,200.9,230,214.3,230,229.9L230,229.9z"/>
<path d="M455.3,661.1h6.5c114,0,228,0,341.9,0c14.2,0,25.9,8.8,29.3,21.8c4.6,18.1-9,35.8-27.9,36c-19.5,0.2-39,0-58.5,0
	c-95.3,0-190.6,0-286-0.1c-4.1,0-6,1.2-7.7,5c-13.5,30-36.7,47.8-69.2,51.8c-39.3,4.8-74.4-16.9-89.5-52.1c-1.7-3.9-3.6-4.6-7.2-4.6
	c-57,0.1-114,0.1-171,0c-14.2,0-26-9-29-22.1c-4.3-18.5,9.4-35.7,28.7-35.7c52.2-0.1,104.3,0,156.5,0c5.2,0,10.3-0.2,15.5,0.1
	c3.5,0.2,5.1-0.9,6.5-4.3c11.1-25.9,30.5-43,57.5-50.3c41.6-11.3,85,10.5,101.7,50.2C454,658,454.6,659.4,455.3,661.1L455.3,661.1z
	 M345,689.6c0.1,16.5,12.9,29.2,29.5,29.2c14.8,0,28.3-13.8,28.1-28.7c-0.2-16-13.6-29.3-29.4-29.1
	C358.1,661.3,344.9,674.6,345,689.6L345,689.6z"/>
<path d="M579.7,488.9c-2.3,0-4.4,0-6.6,0c-152.1,0-304.3,0-456.4,0c-14.6,0-26.4-8.7-29.7-21.9c-4.4-17.7,8.7-35.1,27-35.9
	c1.5-0.1,3,0,4.5,0c151,0,301.9,0,452.9,0.1c6,0,9-1.5,11.7-7.3c13.8-29.2,37.2-46,69.2-49.7c38.2-4.4,73.8,17.3,88.6,52.8
	c1.3,3.1,2.7,4.2,6.1,4.1c18.8-0.2,37.7-0.1,56.5-0.1c17.2,0,30.5,12.7,30.4,29.1c-0.1,16.1-13.3,28.7-30.2,28.8
	c-18.5,0-37,0.1-55.5-0.1c-3.9,0-5.9,1-7.6,4.9c-13.5,29.8-36.6,47.9-69.1,51.9c-38.8,4.7-73.7-16.2-89.3-51.1
	C581.3,492.8,580.6,490.9,579.7,488.9L579.7,488.9z M632.6,459.8c0.3,16.4,13.2,29.4,29.1,29.1c15.6-0.3,28.4-13.6,28.2-29.5
	c-0.2-15.5-13.6-28.6-28.8-28.3C645.4,431.4,632.4,444.6,632.6,459.8L632.6,459.8z"/>
</svg>
