<?xml version="1.0" encoding="utf-8"?>
<!-- Generator: Adobe Illustrator 26.4.1, SVG Export Plug-In . SVG Version: 6.00 Build 0)  -->
<svg version="1.1" id="_Слой_2" xmlns="http://www.w3.org/2000/svg" xmlns:xlink="http://www.w3.org/1999/xlink" x="0px"
	 y="0px" viewBox="0 0 504.8 458.9" style="enable-background:new 0 0 504.8 458.9;" xml:space="preserve">
<style type="text/css">
	.st0{fill:#FFFFFF;}
</style>
<g id="_Слой_1-2">
	<path class="st0" d="M252.8,0c75.8,0,151.6,0,227.4,0c11.8,0,20.4,5.8,23.5,16c0.8,2.6,1.1,5.4,1.1,8.1c0,136.9,0.1,273.7,0,410.6
		c0,14.5-9.8,24.1-24.3,24.1c-151.9,0-303.9,0-455.9,0c-15,0-24.6-9.6-24.6-24.6c0-136.5,0-273,0-409.4C0,9.3,9.4,0,25.1,0
		C101,0,176.9,0,252.8,0z M313,327.7c1.1-1.2,2-2.1,2.8-3c17.9-20.3,35.8-40.7,53.8-61c2.1-2.3,4.1-4.8,6.5-6.7
		c9.7-7.5,22.6-6.2,31.4,3.3c23.5,25.5,47,51.1,70.5,76.6c1,1.1,2.1,2.2,3.4,3.6V23.1H23.4v184.8c1.3-1.4,2.1-2.3,2.9-3.2
		c23.5-27.1,46.9-54.2,70.4-81.2c10.3-11.8,25.8-11.8,35.9-0.3c45.3,51.4,90.7,102.8,136,154.2C283.3,294.1,298,310.7,313,327.7
		L313,327.7z M115,137.5c-1.2,1.3-2,2.1-2.8,3c-28.9,33.2-57.8,66.5-86.6,99.8c-1.4,1.6-2.4,4.1-2.4,6.2C23,308.3,23,370,23,431.6
		c0,1.3,0,2.6,0,3.9h352.5c0.2-0.3,0.4-0.6,0.6-0.9C289.2,335.7,202.2,236.8,115,137.5L115,137.5z M390,275.3
		c-20.7,23.4-41.1,46.6-61.5,69.8c0.5,0.7,0.8,1.1,1.1,1.5c25.2,29,50.3,58.1,75.6,87c1.1,1.3,3.3,2.2,5,2.2
		c22.5,0.1,44.9,0.1,67.4,0.1c1.3,0,2.6-0.1,4.1-0.2v-4.1c0-17.5,0.1-34.9-0.1-52.4c0-2.1-1.1-4.6-2.5-6.2
		c-22.8-25.1-45.7-50.2-68.6-75.2C403.8,290.3,397,282.9,390,275.3L390,275.3z"/>
	<path class="st0" d="M413,137.6c0,38.1-30.7,68.8-68.8,68.8c-38.1,0-68.8-30.7-68.7-68.8c0-38.1,30.8-68.9,68.8-68.9
		C382.2,68.7,413,99.6,413,137.6L413,137.6z M344.2,91.7c-25.2,0-46,20.8-45.9,46c0.1,25.1,20.7,45.7,45.8,45.8
		c25.1,0.2,46.1-20.7,46.1-45.9C390.2,112.5,369.5,91.7,344.2,91.7L344.2,91.7z"/>
</g>
</svg>
