<?xml version="1.0" encoding="utf-8"?>
<!-- Generator: Adobe Illustrator 26.4.1, SVG Export Plug-In . SVG Version: 6.00 Build 0)  -->
<svg version="1.1" id="_Слой_2" xmlns="http://www.w3.org/2000/svg" xmlns:xlink="http://www.w3.org/1999/xlink" x="0px"
	 y="0px" viewBox="0 0 630.3 571.9" style="enable-background:new 0 0 630.3 571.9;" xml:space="preserve">
<style type="text/css">
	.st0{fill:#C84252;}
</style>
<g id="_Слой_1-2">
	<path class="st0" d="M315.9,571.9c-18.2-18.3-35.4-35.6-52.6-52.8c-70.1-70.1-140.9-139.5-210.2-210.4
		C4,258.5-11.4,197.6,8.4,130.4C28.4,62.5,75.2,19.7,144.3,4.6c63.4-13.8,119.2,3.8,166.2,48.7c1.5,1.5,2.5,3.5,3.6,5.1
		c9-7.8,16.5-14.9,24.7-21.2c106-80.7,261.2-22.9,287.5,107.6c12.9,64-4.7,120.2-50.9,166.6c-85.1,85.5-170.7,170.5-256,255.8
		C318.1,568.4,317.3,569.9,315.9,571.9L315.9,571.9z M315.4,116.2c-11.2-11.4-21.7-22.1-32.3-32.7c-51.6-51.5-130.2-57.4-187-13
		c-40,31.2-57.9,73.2-54.1,123.6c2.5,33.9,16.8,63.1,40.9,87.2c76.6,76.6,153.2,153.1,229.9,229.6c0.8,0.8,1.7,1.4,2.7,2.2
		c1.1-1,1.9-1.8,2.7-2.6c76-75.9,152.2-151.8,228.1-227.9c35.3-35.4,49-78,40.4-127.4c-11.2-64.3-70-114-135.3-114.4
		c-40.7-0.3-75.4,14-104.1,42.9C336.9,94.4,326.5,105,315.4,116.2L315.4,116.2z"/>
</g>
</svg>
