<?xml version="1.0" encoding="UTF-8"?>
<svg id="_Слой_2" data-name="Слой 2" xmlns="http://www.w3.org/2000/svg" viewBox="0 0 800 805.7">
  <g id="_Слой_1-2" data-name="Слой 1">
    <g>
      <path d="M0,621.36c0-145.67,0-291.33,0-437,.3-1.28,.68-2.54,.88-3.83,1.38-8.86,2.18-17.85,4.15-26.58C25.24,64.02,103.23,.51,195.1,.22,331.7-.21,468.3,.12,604.9,.1c17.59,0,34.95,1.93,51.73,7.21,75.06,23.6,121.27,74.1,139.26,150.5,2.05,8.69,2.77,17.69,4.11,26.55v436c-.31,1.77-.77,3.53-.91,5.32-3.16,38.22-16.35,72.75-39.93,102.82-39.91,50.89-92.44,77.07-157.38,77.12-134.5,.12-269-.03-403.5,.09-25.99,.02-51.19-3.99-75.05-14.28-66.47-28.68-106.44-78.89-120.35-149.86C1.57,634.89,.94,628.09,0,621.36Zm51.09-155.26c2.04-1.89,3.23-2.92,4.33-4.04,45.88-46.21,91.74-92.44,137.65-138.63,12.44-12.51,27.08-12.47,39.5,.04,59.84,60.27,119.67,120.55,179.48,180.85,6.31,6.36,12.47,12.88,19.26,19.9,1.17-1.62,1.65-2.54,2.35-3.24,44.58-44.92,89.19-89.81,133.75-134.74,11.61-11.7,25.14-12.47,37.81-1.83,41.46,34.78,82.89,69.59,124.34,104.39,6.16,5.17,12.34,10.3,19.15,15.98,.11-1.9,.19-2.69,.19-3.49,0-100.64,.12-201.28-.17-301.92-.03-11.56-1.35-23.33-3.79-34.63-14.11-65.41-73.56-113.12-140.48-113.18-78.98-.07-157.96-.05-236.94-.04-58.98,0-117.97-.29-176.95,.23-25.83,.23-49.99,7.96-71.55,22.24-44.89,29.74-67.68,71.89-67.87,125.73-.29,82.31-.08,164.63-.08,246.94,0,6.09,0,12.17,0,19.45Zm161.26-89.05c-.43,.38-1.07,.89-1.64,1.46-52.24,52.6-104.49,105.18-156.6,157.9-1.73,1.75-2.79,4.92-2.83,7.44-.26,17.83-.12,35.66-.2,53.49-.07,15.85,.79,31.52,4.55,47.08,15.1,62.45,74.35,109.68,138.41,109.78,57.83,.09,115.66,.05,173.48,.06,68.66,0,137.32,.1,205.98-.06,19.28-.05,38.57,.86,57.78-2.66,58.35-10.7,107.81-61.08,115.43-119.9,2.45-18.89,1.58-38.22,2.02-57.35,.03-1.48-1.31-3.38-2.55-4.44-12.79-10.92-25.68-21.72-38.56-32.53-32.15-26.99-64.3-53.97-96.45-80.95-7.36-6.18-14.73-12.34-22.27-18.66-4.8,4.77-9.29,9.2-13.74,13.67-41.91,42.18-83.76,84.43-125.85,126.45-3.12,3.11-7.68,5.37-11.98,6.59-11.43,3.26-20.11-1.95-28-9.94-48-48.58-96.11-97.06-144.3-145.47-17.26-17.34-34.84-34.38-52.69-51.97Z"/>
      <path d="M405.82,230.48c-.62-57.36,45.36-104.11,102.94-104.67,56.63-.54,103.84,46.01,104.07,103.25,.24,58.17-45.21,104.1-101.14,105.15-58.91,1.11-105.23-44.78-105.87-103.74Zm51.1-.54c.08,29.4,23.32,52.72,52.55,52.71,28.57-.01,52.17-23.83,52.25-52.73,.08-28.96-23.66-52.64-52.77-52.64-28.79,0-52.11,23.6-52.03,52.67Z"/>
    </g>
  </g>
</svg>