<?xml version="1.0" encoding="utf-8"?>
<!-- Generator: Adobe Illustrator 24.2.1, SVG Export Plug-In . SVG Version: 6.00 Build 0)  -->
<svg version="1.1" id="_Слой_2" xmlns="http://www.w3.org/2000/svg" xmlns:xlink="http://www.w3.org/1999/xlink" x="0px"
	 y="0px" viewBox="0 0 163.9 164.7" style="enable-background:new 0 0 163.9 164.7;" xml:space="preserve">
<g id="_Слой_1-2">
	<path d="M7.8,156.1v-54.6l-7.8,0v62.4h34.9v-7.8L7.8,156.1L7.8,156.1z M104.5,129.1l-9.8,26.4L85,129.1h-8.6l13.1,34.7H100
		l13.1-34.7C113.1,129.1,104.5,129.1,104.5,129.1z M156.1,163.9h7.8v-62.4h-7.8V163.9z M66.7,142.3H47.1
		C49.8,133.5,64.3,133.4,66.7,142.3z M57,128.3c-10.8,0-18.4,7.4-18.3,18.2c0.1,10.9,7.5,18.2,18.6,18.2c7.2,0,14.1-3.7,17-12.2
		h-8.5c-4.5,8.3-18.2,5.6-19-3.1h28.2C76.4,137.5,68.5,128.3,57,128.3L57,128.3z M142.3,142.3h-19.6
		C125.4,133.5,139.9,133.4,142.3,142.3z M132.6,128.3c-10.8,0-18.4,7.4-18.3,18.2c0.1,10.9,7.4,18.2,18.6,18.2
		c7.2,0,14.1-3.7,17-12.2h-8.5c-4.5,8.3-18.2,5.6-19-3.1h28.2C152,137.5,144.1,128.3,132.6,128.3L132.6,128.3z M156.1,7.8v85.8h7.8
		V0H0v93.6h7.8V7.8H156.1z"/>
</g>
</svg>
