<?xml version="1.0" encoding="UTF-8"?>
<svg id="_Слой_2" data-name="Слой 2" xmlns="http://www.w3.org/2000/svg" viewBox="0 0 163.88 164.68">
  <defs>
    <style>
      .cls-1 {
        fill: #1a1a18;
      }
    </style>
  </defs>
  <g id="_Слой_1-2" data-name="Слой 1">
    <path class="cls-1" d="M7.8,156.07v-54.62S0,101.44,0,101.44v62.43s34.9,0,34.9,0v-7.81H7.8Zm96.69-26.95l-9.75,26.41-9.74-26.41h-8.6l13.13,34.74h10.44l13.12-34.74h-8.6Zm51.57,34.75h7.8s0-62.42,0-62.42h-7.8s0,62.42,0,62.42Zm-89.33-21.61h-19.64c2.7-8.8,17.22-8.84,19.64,0Zm-9.74-13.96c-10.8,0-18.43,7.44-18.32,18.19,.12,10.87,7.45,18.19,18.57,18.19,7.21,0,14.05-3.67,16.96-12.19h-8.46c-4.49,8.27-18.22,5.63-18.97-3.15h28.16c1.48-11.85-6.44-21.04-17.94-21.04Zm85.3,13.96h-19.64c2.71-8.8,17.22-8.84,19.64,0Zm-9.74-13.96c-10.8,0-18.43,7.44-18.32,18.19,.12,10.87,7.45,18.19,18.57,18.19,7.22,0,14.05-3.67,16.96-12.19h-8.46c-4.48,8.27-18.23,5.63-18.97-3.15h28.16c1.48-11.85-6.44-21.04-17.94-21.04ZM156.07,7.8V93.64h7.81V0H0V93.64H7.8V7.8s148.27,0,148.27,0Z"/>
  </g>
</svg>