<?xml version="1.0" encoding="utf-8"?>
<!-- Generator: Adobe Illustrator 26.4.1, SVG Export Plug-In . SVG Version: 6.00 Build 0)  -->
<svg version="1.1" id="_Слой_2" xmlns="http://www.w3.org/2000/svg" xmlns:xlink="http://www.w3.org/1999/xlink" x="0px"
	 y="0px" viewBox="0 0 504.8 458.9" style="enable-background:new 0 0 504.8 458.9;" xml:space="preserve">
<style type="text/css">
	.st0{fill:#FFFFFF;stroke:#FFFFFF;stroke-width:12;stroke-miterlimit:10;}
</style>
<g>
	<path class="st0" d="M433.1,458.9h-27.8c-4.7,0-8.6-3.8-8.6-8.6V132.7c0-4.5-3.7-8.2-8.2-8.2H116.3c-4.5,0-8.2,3.7-8.2,8.2v317.7
		c0,4.7-3.8,8.6-8.6,8.6H71.7c-7.8,0-14.1-6.3-14.1-14.1V92.5l1.7-0.8c31.8-15.1,63.6-30.2,95.3-45.3L252.4,0l95.7,45.4
		c32.5,15.4,65,30.9,97.4,46.3l1.7,0.8v352.2C447.2,452.6,440.9,458.9,433.1,458.9z M116.3,118.5h272.2c7.8,0,14.1,6.3,14.1,14.1
		v317.7c0,1.5,1.2,2.6,2.6,2.6H433c4.5,0,8.2-3.7,8.2-8.2V96.3c-31.9-15.2-63.8-30.3-95.8-45.5l-93-44.2l-95.2,45.2
		C126,66.6,94.8,81.5,63.6,96.3v348.5c0,4.5,3.7,8.2,8.2,8.2h27.8c1.5,0,2.6-1.2,2.6-2.6V132.7C102.1,124.9,108.5,118.5,116.3,118.5
		z"/>
	<path class="st0" d="M3.4,124.5c-1.1,0-2.2-0.6-2.7-1.7c-0.7-1.5-0.1-3.2,1.4-3.9c19-9,38.1-18.1,57.1-27.1
		c1.5-0.7,3.2-0.1,3.9,1.4s0.1,3.2-1.4,3.9c-19,9-38.1,18.1-57.1,27.1C4.3,124.4,3.9,124.5,3.4,124.5z"/>
	<path class="st0" d="M501.4,124.5c-0.4,0-0.9-0.1-1.3-0.3c-19-9-38.1-18.1-57.1-27.1c-1.5-0.7-2.1-2.5-1.4-3.9
		c0.7-1.5,2.5-2.1,3.9-1.4c19,9,38.1,18.1,57.1,27.1c1.5,0.7,2.1,2.5,1.4,3.9C503.5,123.8,502.5,124.5,501.4,124.5z"/>
	<path class="st0" d="M224.7,331.5H115.8c-6.3,0-11.3-5.1-11.3-11.3v-46.3c0-6.3,5.1-11.3,11.3-11.3h108.9c6.3,0,11.3,5.1,11.3,11.3
		v46.3C236.1,326.4,231,331.5,224.7,331.5z M115.8,268.4c-3,0-5.4,2.4-5.4,5.4v46.3c0,3,2.4,5.4,5.4,5.4h108.9c3,0,5.4-2.4,5.4-5.4
		v-46.3c0-3-2.4-5.4-5.4-5.4H115.8z"/>
	<path class="st0" d="M224.7,394.6H115.8c-6.3,0-11.3-5.1-11.3-11.3V337c0-6.3,5.1-11.3,11.3-11.3h108.9c6.3,0,11.3,5.1,11.3,11.3
		v46.3C236.1,389.5,231,394.6,224.7,394.6z M115.8,331.5c-3,0-5.4,2.4-5.4,5.4v46.3c0,3,2.4,5.4,5.4,5.4h108.9c3,0,5.4-2.4,5.4-5.4
		v-46.3c0-3-2.4-5.4-5.4-5.4H115.8z"/>
	<path class="st0" d="M224.7,457.7H115.8c-6.3,0-11.3-5.1-11.3-11.3V400c0-6.3,5.1-11.3,11.3-11.3h108.9c6.3,0,11.3,5.1,11.3,11.3
		v46.3C236.1,452.6,231,457.7,224.7,457.7z M115.8,394.6c-3,0-5.4,2.4-5.4,5.4v46.3c0,3,2.4,5.4,5.4,5.4h108.9c3,0,5.4-2.4,5.4-5.4
		V400c0-3-2.4-5.4-5.4-5.4H115.8z"/>
	<path class="st0" d="M350.4,394.6H241.5c-6.3,0-11.3-5.1-11.3-11.3V337c0-6.3,5.1-11.3,11.3-11.3h108.9c6.3,0,11.3,5.1,11.3,11.3
		v46.3C361.8,389.5,356.7,394.6,350.4,394.6z M241.5,331.5c-3,0-5.4,2.4-5.4,5.4v46.3c0,3,2.4,5.4,5.4,5.4h108.9
		c3,0,5.4-2.4,5.4-5.4v-46.3c0-3-2.4-5.4-5.4-5.4H241.5z"/>
	<path class="st0" d="M350.4,457.7H241.5c-6.3,0-11.3-5.1-11.3-11.3V400c0-6.3,5.1-11.3,11.3-11.3h108.9c6.3,0,11.3,5.1,11.3,11.3
		v46.3C361.8,452.6,356.7,457.7,350.4,457.7z M241.5,394.6c-3,0-5.4,2.4-5.4,5.4v46.3c0,3,2.4,5.4,5.4,5.4h108.9
		c3,0,5.4-2.4,5.4-5.4V400c0-3-2.4-5.4-5.4-5.4H241.5z"/>
</g>
</svg>
