<?xml version="1.0" encoding="utf-8"?>
<!-- Generator: Adobe Illustrator 26.4.1, SVG Export Plug-In . SVG Version: 6.00 Build 0)  -->
<svg version="1.1" id="_Слой_2" xmlns="http://www.w3.org/2000/svg" xmlns:xlink="http://www.w3.org/1999/xlink" x="0px"
	 y="0px" viewBox="0 0 511.8 512" style="enable-background:new 0 0 511.8 512;" xml:space="preserve">
<style type="text/css">
	.st0{fill:#FFFFFF;}
</style>
<g id="_Слой_1-2">
	<g>
		<path class="st0" d="M269.9,0c8,1,16.1,1.8,24.1,3c43.3,6.6,82.4,23.2,117.2,49.8c32.2,24.7,57.3,55.3,75,91.7
			c12.5,25.7,20.4,52.7,23.7,81.2c4.7,40,0.4,78.9-13.2,116.7c-12,33.6-30.4,63.2-54.9,89.2c-27.1,28.7-59.2,50.1-96.1,64.1
			c-19.1,7.2-38.9,12.2-59.2,14.4c-5.6,0.6-11.2,1.3-16.7,2h-28c-7.7-0.9-15.4-1.8-23.1-2.9c-34.8-4.9-67.1-16.7-96.9-35.2
			C80,448,48,412.9,26.1,368.9c-12.9-26-21.1-53.6-24.4-82.5c-7.1-62.5,6.6-120.1,41.3-172.4c26.9-40.5,62.8-70.8,107.2-91
			c25.6-11.7,52.4-18.5,80.2-21.8c3.8-0.4,7.5-0.7,11.3-1.1C251.2,0,260.5,0,269.9,0z M255.6,24.4C128.6,24.9,24,126.9,24.3,256.5
			c0.3,128,102.7,230.6,231,231c129.4,0.4,232.5-104.1,232.1-232.4C487,128.1,384.1,24.7,255.6,24.4L255.6,24.4z"/>
		<path class="st0" d="M203.8,291c0,25.1,0.1,49.5,0,73.8c-0.1,11-2.6,21.3-12.2,28c-10.8,7.6-22.6,8.1-34.5,3
			c-11.6-5-17-14.8-17-27c-0.2-74-0.3-147.9,0-221.9c0.1-21,10.7-31.6,31-33.7c2.1-0.2,4.3-0.3,6.5-0.3c33.3,0,66.6-0.2,100,0.1
			c19.8,0.2,39,3.9,56.3,14.1c21.8,12.9,33.5,32.6,37.1,57.2c2.7,18.3,1.7,36.5-5.6,53.8c-11.8,27.8-33.6,43.4-62.4,49.5
			c-10.5,2.2-21.4,2.9-32.1,3.1c-20.3,0.5-40.6,0.1-61,0.1H203.8L203.8,291z M204,241.4c0.7,0.2,1.1,0.4,1.6,0.4
			c21.6-0.2,43.3,0.7,64.8-1c31.5-2.4,44.4-30.3,34.1-56.1c-2.1-5.3-6.9-10.1-11.6-13.7c-7.4-5.6-16.4-7.9-25.6-8.1
			c-17.3-0.5-34.6-0.6-51.9-0.9c-3.8-0.1-7.5,0-11.4,0L204,241.4L204,241.4z"/>
	</g>
</g>
</svg>
