<?xml version="1.0" encoding="utf-8"?>
<!-- Generator: Adobe Illustrator 26.4.1, SVG Export Plug-In . SVG Version: 6.00 Build 0)  -->
<svg version="1.1" id="_Слой_2" xmlns="http://www.w3.org/2000/svg" xmlns:xlink="http://www.w3.org/1999/xlink" x="0px"
	 y="0px" viewBox="0 0 749.6 749.7" style="enable-background:new 0 0 749.6 749.7;" xml:space="preserve">
<style type="text/css">
	.st0{fill:#FFFFFF;}
</style>
<g id="_Слой_1-2">
	<path class="st0" d="M0,749.7V0.3C1.8,0.2,3.6,0,5.3,0c88,0,176,0,264,0.1c2.5,0,5.4,0.8,7.3,2.2c47.7,35.6,95.4,71.4,143,107.2
		c0.4,0.3,0.8,0.6,1.6,1.3c-7,9.4-13.9,18.8-21.2,28.5c-12.1-9.1-24-17.9-35.8-26.8c-33.3-25-66.5-50-99.9-74.8
		c-1.8-1.3-4.6-2-6.9-2c-34.2-0.1-68.3-0.1-102.5-0.1c-37.7,0-75.3,0-113,0c-2,0-3.9,0-6.2,0v678.4H321V428.8H196.6v-35.7h285.2
		v35.5H357.5v285.7h356.6V428.9H589.6v-35.6h124.5V35.9H482.4V0.3h267.1v749.4H0z"/>
</g>
</svg>
